<svg width="29" height="29" viewBox="0 0 29 29" fill="none" xmlns="http://www.w3.org/2000/svg">
    <mask id="mask0_3307_6501" style="mask-type:alpha" maskUnits="userSpaceOnUse" x="0" y="-1"
        width="29" height="30">
        <path fill-rule="evenodd" clip-rule="evenodd"
            d="M0.236708 28.297V-0.00304054H28.5268V28.297H0.236708Z" fill="#E9E9E9" />
    </mask>
    <g mask="url(#mask0_3307_6501)">
        <path fill-rule="evenodd" clip-rule="evenodd"
            d="M16.2219 26.6277H16.2411C19.3035 26.6277 24.4742 25.145 25.0455 19.4051C22.7769 19.3794 17.19 20.0126 16.2219 26.6279L16.2219 26.6277ZM16.3049 28.295C16.1081 28.295 15.9115 28.2902 15.7151 28.2804C15.363 28.2622 15.0341 28.0994 14.8061 27.8306C14.5781 27.5618 14.4712 27.2107 14.5107 26.8604C15.3067 19.7924 20.7212 17.5191 25.5251 17.7539C25.8669 17.7703 26.188 17.9229 26.4166 18.1776C26.6452 18.4323 26.7622 18.768 26.7416 19.1096C26.5489 22.2899 25.135 24.8349 22.6524 26.4695C20.8705 27.6425 18.5859 28.295 16.3048 28.295L16.3049 28.295ZM3.71633 19.4051C4.28744 25.1455 9.45817 26.6277 12.5207 26.6277H12.5399C11.5719 20.0131 5.98615 19.3791 3.71635 19.4053L3.71633 19.4051ZM12.457 28.295C10.1758 28.295 7.89137 27.6423 6.1094 26.4688C3.62689 24.8342 2.21295 22.2896 2.02041 19.1091C1.9997 18.7675 2.11668 18.4318 2.34521 18.177C2.57373 17.9223 2.89477 17.7696 3.23662 17.7532C8.03967 17.5205 13.4552 19.7921 14.2512 26.8598C14.2906 27.21 14.1837 27.5611 13.9557 27.8299C13.7277 28.0987 13.3988 28.2615 13.0468 28.2797C12.8504 28.2901 12.6537 28.2952 12.457 28.295L12.457 28.295ZM10.6209 15.3182C10.9435 15.3185 11.2517 15.4516 11.4731 15.6863C11.6944 15.921 11.8093 16.2366 11.7906 16.5586C11.7832 16.6939 11.7876 16.8295 11.8038 16.964C11.9108 17.8609 12.5172 18.6195 13.3685 18.9214C14.2198 19.2233 15.1687 19.0162 15.8168 18.3871C16.2788 17.9419 16.5388 17.3274 16.5367 16.6858C16.5367 16.6434 16.5355 16.6011 16.5331 16.559C16.5077 16.116 16.7343 15.6966 17.1187 15.4751C17.5031 15.2535 17.9795 15.2677 18.3501 15.5117C18.3854 15.5348 18.4211 15.5567 18.4577 15.5779C19.0137 15.8986 19.6758 15.9808 20.2933 15.8057C20.9109 15.6306 21.4313 15.2132 21.7362 14.6484C22.2871 13.6124 22.0027 12.3297 21.0656 11.6237C20.957 11.5425 20.8416 11.4708 20.7207 11.4095C20.3241 11.2112 20.0736 10.8058 20.0736 10.3624C20.0736 9.91893 20.3241 9.51355 20.7207 9.31519C20.8418 9.25391 20.9573 9.18219 21.0659 9.10087C22.0029 8.39479 22.2874 7.11218 21.7367 6.07619C21.4318 5.51135 20.9114 5.09385 20.2939 4.91871C19.6764 4.74357 19.0143 4.82568 18.4582 5.14634C18.4215 5.16802 18.3856 5.19003 18.3507 5.21236C17.9803 5.45678 17.5037 5.47123 17.1191 5.24972C16.7346 5.02821 16.5079 4.60865 16.5335 4.1656C16.541 4.03028 16.5365 3.89457 16.5201 3.76003C16.413 2.86326 15.8066 2.10484 14.9553 1.80304C14.1041 1.50124 13.1554 1.70829 12.5073 2.3373C12.0455 2.78216 11.7853 3.39626 11.787 4.03746C11.787 4.08006 11.7882 4.1224 11.7906 4.16446C11.8162 4.60741 11.5898 5.02692 11.2054 5.24854C10.821 5.47017 10.3445 5.45597 9.97402 5.21187C9.86135 5.13848 9.74257 5.07494 9.61902 5.02193C8.48862 4.5448 7.18042 4.9986 6.58832 6.07325C5.97103 7.20217 6.37272 8.61752 7.49101 9.25388C7.52754 9.27491 7.56456 9.29486 7.60208 9.31372C7.99928 9.51173 8.2504 9.9173 8.25056 10.3611C8.25073 10.805 7.99993 11.2107 7.60289 11.409C7.48203 11.4702 7.36671 11.5418 7.2583 11.623C6.32124 12.3291 6.03678 13.6117 6.58751 14.6477C6.8924 15.2125 7.4128 15.63 8.03029 15.8051C8.6478 15.9802 9.30986 15.8981 9.86586 15.5774C9.90262 15.5561 9.93839 15.5341 9.97334 15.5114C10.1659 15.3855 10.3909 15.3184 10.6209 15.3182V15.3182ZM14.1633 20.7234C14.1237 20.7234 14.0839 20.7228 14.044 20.7216C12.092 20.6549 10.4631 19.21 10.1641 17.2798C8.25925 18.0307 6.09371 17.2405 5.12005 15.4394C4.20257 13.7162 4.64113 11.5841 6.16422 10.3629C4.62024 9.15235 4.179 7.00233 5.12136 5.28147C6.10529 3.49393 8.25903 2.70885 10.1625 3.4439C10.4657 1.41971 12.2339 -0.0585105 14.2798 0.00177949C16.2318 0.0686195 17.8607 1.51361 18.1598 3.44374C20.0648 2.69298 22.2303 3.48338 23.2038 5.28473C24.1215 7.00849 23.6822 9.14137 22.1581 10.3623C23.6824 11.5832 24.1216 13.7164 23.2036 15.4402C22.2302 17.2407 20.0656 18.031 18.1612 17.281C17.864 19.2596 16.1642 20.7233 14.1634 20.7234L14.1633 20.7234Z"
            fill="white" />
        <path fill-rule="evenodd" clip-rule="evenodd"
            d="M14.2846 8.14564C13.871 8.1461 13.4649 8.25682 13.1083 8.46635C12.5633 8.78361 12.1675 9.30522 12.0085 9.91542C11.8447 10.5265 11.9294 11.1776 12.2443 11.7263C12.5539 12.2739 13.0702 12.6745 13.6776 12.8381C14.2824 13.0036 14.9284 12.9177 15.4688 12.5998C16.0138 12.2825 16.4097 11.7609 16.5686 11.1507C16.7322 10.5395 16.6472 9.88838 16.3321 9.33971C15.9137 8.60283 15.1321 8.14702 14.2846 8.14562V8.14564ZM14.2952 14.5941C12.8526 14.5933 11.5215 13.8182 10.8089 12.5639C10.273 11.63 10.1287 10.5218 10.4075 9.4817C10.815 7.90165 12.1402 6.72673 13.7577 6.51145C15.3753 6.29618 16.9617 7.08362 17.7682 8.50208C18.3041 9.43601 18.4484 10.5441 18.1697 11.5842C17.8991 12.6228 17.2253 13.5106 16.2977 14.0506C15.6904 14.4065 14.9991 14.5942 14.2952 14.5941Z"
            fill="white" />
    </g>
</svg>
    